# xmcd CD database file
#
# Track frame offsets:
#	150
#	16447
#	30842
#	55207
#	66320
#	89322
#	111460
#	123427
#	142887
#	162912
#	205722
#	224682
#	240727
#	281602
#
# Disc length: 3889 seconds
#
# Revision: 0
# Processed by: cddbd v1.5.1PL0 Copyright (c) Steve Scherf et al.
# Submitted via: CDex 1.60beta1
#
DISCID=ca0f2f0e
DTITLE=チュンソフト - かまいたちの夜 特別編〜スペシャルアレンジパック〜
DYEAR=1900
DGENRE=Game
TTITLE0=Introduction
TTITLE1=ゲレンデの恋人たち
TTITLE2=ペンション・シュプール
TTITLE3=懐かしいあの風景
TTITLE4=レクイエム
TTITLE5=長い夜の始まり
TTITLE6=かまいたちの夜
TTITLE7=せまりくる恐怖
TTITLE8=伝説のスパイ
TTITLE9=Final Mission
TTITLE10=Lover
TTITLE11=追憶
TTITLE12=遠い日の幻影
TTITLE13=懐かしいあの風景〜Piano Version〜
EXTD=
EXTT0=
EXTT1=
EXTT2=
EXTT3=
EXTT4=
EXTT5=
EXTT6=
EXTT7=
EXTT8=
EXTT9=
EXTT10=
EXTT11=
EXTT12=
EXTT13=
PLAYORDER=
